<?xml version="1.0" encoding="utf-8"?>
<!-- Generator: Adobe Illustrator 16.0.0, SVG Export Plug-In . SVG Version: 6.00 Build 0)  -->
<!DOCTYPE svg PUBLIC "-//W3C//DTD SVG 1.1//EN" "http://www.w3.org/Graphics/SVG/1.1/DTD/svg11.dtd">
<svg version="1.1" id="Layer_1" xmlns="http://www.w3.org/2000/svg" xmlns:xlink="http://www.w3.org/1999/xlink" x="0px" y="0px"
	 width="815.447px" height="943.104px" viewBox="0 0 815.447 943.104" enable-background="new 0 0 815.447 943.104"
	 xml:space="preserve">
<path fill="#FFFFFF" d="M804.961,265.281c-7.599-23.284-18.994-44.484-34.068-63.603h-0.002
	c-15.195-19.118-35.414-32.231-60.781-39.461c-25.37-7.23-48.532-4.656-69.608,7.966c-21.08,12.623-41.792,35.417-62.133,68.628
	c4.901-43.629,6.004-76.472,3.431-98.408c-2.819-23.162-10.662-43.628-23.529-61.521c-10.052-13.848-22.551-26.961-37.623-39.338
	c-17.525-14.583-39.828-25.735-66.668-33.456C427.019-1.754,394.666-2,357.042,5.231c-10.539,3.063-17.034,4.902-19.609,5.759
	c-23.162,7.966-42.647,18.996-58.456,32.966c-15.564,13.848-28.922,30.024-40.074,48.407
	c-10.662,17.524-15.687,37.868-15.196,61.274c0.49,22.427,2.083,51.225,4.902,86.398c-15.074-28.186-30.638-49.388-46.936-63.48
	c-14.584-12.623-33.21-19.362-56.128-20.343c-27.205-1.104-47.794,6.495-61.642,22.917c-13.971,16.421-26.104,33.824-36.397,52.207
	c-10.294,18.26-17.892,48.161-22.795,89.705c-5.023,41.544-6.004,72.917-3.064,94.241c2.942,21.201,6.496,40.44,10.785,57.721
	c4.167,17.156,12.623,37.991,25.368,62.499c12.623,24.388,36.643,54.047,71.937,88.727c-3.064,34.927-4.657,69.119-4.779,102.574
	c0,33.336-2.206,70.835-6.617,112.623c-4.535,41.668-6.863,61.764-6.985,60.416c-0.245-1.348-4.78,12.378-13.604,41.423
	c10.417-3.554,20.221-15.931,29.167-37.131c8.946-21.325,16.421-39.095,22.427-53.435c6.004-14.339,11.396-33.334,16.176-56.74
	c4.779-23.405,9.437-46.323,13.725-68.75c4.29-22.424,6.863-43.873,7.843-64.217c7.354,6.498,12.868,11.276,16.422,14.218
	c27.574,22.183,48.162,44.24,61.765,66.176c13.604,21.936,21.325,46.445,23.284,73.775c1.961,27.205,2.329,47.181,1.226,59.806
	c-1.225,12.621-2.205,21.199-3.063,25.733c-1.838,10.662-5.761,21.691-11.765,33.333c12.623-10.172,22.058-22.181,28.431-36.151
	c6.373-13.848,11.764-46.077,16.299-96.446c4.413-50.369-4.535-89.339-26.961-116.912c-22.427-27.575-42.647-51.225-60.54-70.955
	c-5.27-5.763-15.196-14.339-29.534-25.616c5.515-21.077,10.907-41.788,16.176-62.254c5.271-20.465,18.015-37.131,38.359-49.999
	c20.22-12.868,37.499-10.417,51.593,7.476c12.623,15.809,28.186,29.656,46.446,41.422c17.892,11.518,38.849,18.872,62.745,21.938
	c23.897,3.062,42.279,0.856,55.392-6.741c12.993-7.598,25.002-18.752,36.152-33.456c11.154-14.829,24.635-26.472,40.565-35.049
	c15.809-8.701,30.882-6.129,45.221,7.474c14.337,13.603,23.896,31.007,28.676,52.208c4.779,21.2,8.58,41.421,11.152,60.661
	c-17.771,10.173-33.578,24.387-47.671,42.524c-14.463,18.749-27.085,37.132-37.867,55.27
	c-10.786,18.015-18.628,39.215-23.529,63.604c-5.027,24.266-6.741,48.65-5.149,73.04c1.349,24.388,5.515,47.794,12.378,70.098
	c6.862,22.303,18.63,37.989,35.295,46.938c-6.006-14.828-9.803-31.863-11.275-50.859c-1.47-18.995-1.959-42.033-1.348-68.873
	c0.489-26.837,6.741-54.044,18.629-81.617c11.886-27.573,26.225-46.08,43.015-55.394c16.788-9.435,28.187-15.809,34.068-19.362
	c0.735,26.103,4.289,50.613,10.66,73.774c6.006,22.059,11.398,44.118,16.178,66.299c4.779,22.183,11.886,43.14,21.323,63.115
	c9.806,20.709,22.059,40.071,36.643,58.089c4.045,5.022,11.273,9.924,21.937,14.828c-6.372-7.6-12.011-17.403-16.79-29.414
	c-4.779-12.131-8.946-26.96-12.256-44.484c-3.306-17.523-5.022-36.152-5.268-55.637c-0.369-19.609-1.471-43.749-3.553-72.427
	c-2.084-28.678-5.518-64.34-10.172-106.863c18.992-21.323,34.313-40.32,45.71-57.107c11.397-16.791,22.793-35.051,33.945-54.904
	c11.153-19.853,19.363-37.744,24.511-53.674c5.024-16.055,9.681-32.109,13.85-48.164c4.166-16.178,6.493-40.195,6.984-72.182
	C815.993,316.262,812.436,288.566,804.961,265.281z M212.066,371.165c-22.303,3.798-39.216,10.784-50.736,20.955
	c-11.519,10.173-21.078,26.469-28.676,49.02c-5.637,17.157-10.172,34.191-13.604,50.981l-2.695,25.857
	c-9.191-18.016-14.951-35.05-17.035-50.98c-2.083-15.932-3.187-36.153-3.187-60.54s6.618-46.323,19.852-65.563
	c13.114-19.242,32.966-26.839,59.437-22.795c18.751,2.819,35.662,7.967,50.736,15.32c15.319,7.597,26.593,20.71,33.701,39.215
	C250.301,367.855,234.37,367.365,212.066,371.165z M395.524,396.165c-3.065,23.773-8.335,40.439-16.056,49.877
	c-7.719,9.438-16.789,7.842-27.205-4.658c-10.418-12.498-20.221-30.881-29.657-55.146c-9.438-24.264-13.481-49.021-12.377-74.388
	c1.102-24.264,14.95-35.906,41.667-34.926c24.876,6.617,39.214,22.181,42.77,46.814
	C398.218,348.247,398.586,372.391,395.524,396.165z M485.843,434.522c-7.967,17.77-17.28,22.917-27.941,15.687
	c-10.66-7.353-19.976-23.04-28.064-47.183c-8.088-24.141-14.094-47.181-18.014-68.994c-5.271-28.8,1.837-47.183,21.077-55.271
	c25.613-4.656,42.403,2.941,50.245,22.671c7.845,19.731,12.256,42.526,13.234,68.138
	C497.363,395.185,493.809,416.752,485.843,434.522z M709.985,463.688c-6.862,18.752-15.195,39.339-24.998,61.644
	c-3.801-37.257-8.702-68.751-14.708-94.363c-6.371-27.083-21.69-46.569-45.954-58.334c-18.018-8.701-41.423-11.765-69.979-9.19
	c14.587-17.281,33.335-28.31,56.375-33.212c16.543-3.554,33.578-3.308,51.225,0.613c10.052,2.205,19.609,7.598,28.8,16.299
	c9.066,8.577,16.299,25.49,21.569,50.613C717.584,422.88,716.848,444.816,709.985,463.688z"/>
</svg>
